<svg xmlns="http://www.w3.org/2000/svg" viewBox="0 0 25.167 37.87"><path fill="none" stroke="currentColor" stroke-width="2.5" stroke-miterlimit="10" d="M12.583 36.62h0c-6.233 0-11.333-5.1-11.333-11.333V12.583C1.25 6.35 6.35 1.25 12.583 1.25h0c6.234 0 11.334 5.1 11.334 11.333v12.704c0 6.233-5.1 11.333-11.334 11.333z"/><path style="animation:scrollDownMove .8s ease-in-out alternate infinite" fill="currentColor" d="M13.083 19.216h-.919c-1.1 0-2-.9-2-2v-5.429c0-1.1.9-2 2-2h.92c1.1 0 2 .9 2 2v5.429c0 1.1-.9 2-2 2z"/></svg>